<mxfile modified="2023-06-05T23:40:01.520Z" host="Electron" agent="Mozilla/5.0 (Windows NT 10.0; Win64; x64) AppleWebKit/537.36 (KHTML, like Gecko) draw.io/21.2.8 Chrome/112.0.5615.165 Electron/24.2.0 Safari/537.36" etag="Y2mCm4fQ9tDoqgxYn9OI" version="21.2.8" type="device">
  <diagram id="Ht1M8jgEwFfnCIfOTk4-" name="Page-1">
    <mxGraphModel dx="1115" dy="711" grid="1" gridSize="10" guides="1" tooltips="1" connect="1" arrows="1" fold="1" page="1" pageScale="1" pageWidth="1169" pageHeight="827" background="#ffffff" math="0" shadow="0">
      <root>
        <mxCell id="0" />
        <mxCell id="1" parent="0" />
        <mxCell id="Ls341-RRSWLqtu8FOZN3-109" value="ZONE a" style="fillColor=none;strokeColor=#147EBA;dashed=1;verticalAlign=top;fontStyle=0;fontColor=#147EBA;whiteSpace=wrap;html=1;" parent="1" vertex="1">
          <mxGeometry x="490" y="530" width="210" height="170" as="geometry" />
        </mxCell>
        <mxCell id="Ls341-RRSWLqtu8FOZN3-110" value="ZONE a" style="fillColor=none;strokeColor=#147EBA;dashed=1;verticalAlign=top;fontStyle=0;fontColor=#147EBA;whiteSpace=wrap;html=1;" parent="1" vertex="1">
          <mxGeometry x="490" y="210" width="210" height="170" as="geometry" />
        </mxCell>
        <mxCell id="Ls341-RRSWLqtu8FOZN3-111" value="&lt;font style=&quot;font-size: 10px;&quot;&gt;SN1&lt;/font&gt;" style="points=[[0,0],[0.25,0],[0.5,0],[0.75,0],[1,0],[1,0.25],[1,0.5],[1,0.75],[1,1],[0.75,1],[0.5,1],[0.25,1],[0,1],[0,0.75],[0,0.5],[0,0.25]];outlineConnect=0;gradientColor=none;html=1;whiteSpace=wrap;fontSize=12;fontStyle=0;container=0;pointerEvents=0;collapsible=0;recursiveResize=0;shape=mxgraph.aws4.group;grIcon=mxgraph.aws4.group_security_group;grStroke=0;strokeColor=#248814;fillColor=#E9F3E6;verticalAlign=top;align=left;spacingLeft=30;fontColor=#248814;dashed=0;" parent="1" vertex="1">
          <mxGeometry x="500" y="560" width="190" height="30" as="geometry" />
        </mxCell>
        <mxCell id="Ls341-RRSWLqtu8FOZN3-112" value="ZONE c" style="fillColor=none;strokeColor=#147EBA;dashed=1;verticalAlign=top;fontStyle=0;fontColor=#147EBA;whiteSpace=wrap;html=1;" parent="1" vertex="1">
          <mxGeometry x="50" y="210" width="210" height="170" as="geometry" />
        </mxCell>
        <mxCell id="Ls341-RRSWLqtu8FOZN3-113" value="REPUBLIC OF KOREA" style="points=[[0,0],[0.25,0],[0.5,0],[0.75,0],[1,0],[1,0.25],[1,0.5],[1,0.75],[1,1],[0.75,1],[0.5,1],[0.25,1],[0,1],[0,0.75],[0,0.5],[0,0.25]];outlineConnect=0;gradientColor=none;html=1;whiteSpace=wrap;fontSize=12;fontStyle=0;container=1;pointerEvents=0;collapsible=0;recursiveResize=0;shape=mxgraph.aws4.group;grIcon=mxgraph.aws4.group_region;strokeColor=#147EBA;fillColor=none;verticalAlign=top;align=left;spacingLeft=30;fontColor=#147EBA;dashed=1;flipH=0;" parent="1" vertex="1">
          <mxGeometry x="20" y="70" width="780" height="700" as="geometry" />
        </mxCell>
        <mxCell id="Ls341-RRSWLqtu8FOZN3-114" value="IDC SEOUL" style="points=[[0,0],[0.25,0],[0.5,0],[0.75,0],[1,0],[1,0.25],[1,0.5],[1,0.75],[1,1],[0.75,1],[0.5,1],[0.25,1],[0,1],[0,0.75],[0,0.5],[0,0.25]];outlineConnect=0;gradientColor=none;html=1;whiteSpace=wrap;fontSize=12;fontStyle=0;container=1;pointerEvents=0;collapsible=0;recursiveResize=0;shape=mxgraph.aws4.group;grIcon=mxgraph.aws4.group_corporate_data_center;strokeColor=#5A6C86;fillColor=none;verticalAlign=top;align=left;spacingLeft=30;fontColor=#5A6C86;dashed=0;" parent="Ls341-RRSWLqtu8FOZN3-113" vertex="1">
          <mxGeometry x="10" y="390" width="760" height="300" as="geometry" />
        </mxCell>
        <mxCell id="Ls341-RRSWLqtu8FOZN3-115" value="" style="sketch=0;outlineConnect=0;fontColor=#232F3E;gradientColor=none;fillColor=#4D27AA;strokeColor=none;dashed=0;verticalLabelPosition=bottom;verticalAlign=top;align=center;html=1;fontSize=12;fontStyle=0;aspect=fixed;pointerEvents=1;shape=mxgraph.aws4.vpn_gateway;" parent="Ls341-RRSWLqtu8FOZN3-114" vertex="1">
          <mxGeometry x="720" y="10" width="30" height="30" as="geometry" />
        </mxCell>
        <mxCell id="Ls341-RRSWLqtu8FOZN3-116" value="&lt;font color=&quot;#828c8c&quot;&gt;VPC1&lt;/font&gt;" style="points=[[0,0],[0.25,0],[0.5,0],[0.75,0],[1,0],[1,0.25],[1,0.5],[1,0.75],[1,1],[0.75,1],[0.5,1],[0.25,1],[0,1],[0,0.75],[0,0.5],[0,0.25]];outlineConnect=0;gradientColor=none;html=1;whiteSpace=wrap;fontSize=12;fontStyle=0;container=1;pointerEvents=0;collapsible=0;recursiveResize=0;shape=mxgraph.aws4.group;grIcon=mxgraph.aws4.group_vpc;strokeColor=#248814;fillColor=none;verticalAlign=top;align=left;spacingLeft=30;fontColor=#AAB7B8;dashed=0;" parent="Ls341-RRSWLqtu8FOZN3-114" vertex="1">
          <mxGeometry x="10" y="40" width="680" height="230" as="geometry" />
        </mxCell>
        <mxCell id="Ls341-RRSWLqtu8FOZN3-117" style="edgeStyle=orthogonalEdgeStyle;rounded=0;orthogonalLoop=1;jettySize=auto;html=1;exitX=0.5;exitY=1;exitDx=0;exitDy=0;" parent="Ls341-RRSWLqtu8FOZN3-113" edge="1">
          <mxGeometry relative="1" as="geometry">
            <mxPoint x="379" y="680" as="sourcePoint" />
            <mxPoint x="379" y="680" as="targetPoint" />
          </mxGeometry>
        </mxCell>
        <mxCell id="Ls341-RRSWLqtu8FOZN3-118" value="AWS SEOUL" style="outlineConnect=0;gradientColor=none;html=1;whiteSpace=wrap;fontSize=12;fontStyle=0;container=1;pointerEvents=0;collapsible=0;recursiveResize=0;shape=mxgraph.aws4.group;grIcon=mxgraph.aws4.group_aws_cloud;strokeColor=#232F3E;fillColor=none;verticalAlign=top;align=left;spacingLeft=30;fontColor=#232F3E;dashed=0;" parent="Ls341-RRSWLqtu8FOZN3-113" vertex="1">
          <mxGeometry x="10" y="70" width="760" height="300" as="geometry" />
        </mxCell>
        <mxCell id="Ls341-RRSWLqtu8FOZN3-119" value="" style="sketch=0;points=[[0,0,0],[0.25,0,0],[0.5,0,0],[0.75,0,0],[1,0,0],[0,1,0],[0.25,1,0],[0.5,1,0],[0.75,1,0],[1,1,0],[0,0.25,0],[0,0.5,0],[0,0.75,0],[1,0.25,0],[1,0.5,0],[1,0.75,0]];outlineConnect=0;fontColor=#232F3E;gradientColor=#945DF2;gradientDirection=north;fillColor=#5A30B5;strokeColor=#ffffff;dashed=0;verticalLabelPosition=bottom;verticalAlign=top;align=center;html=1;fontSize=12;fontStyle=0;aspect=fixed;shape=mxgraph.aws4.resourceIcon;resIcon=mxgraph.aws4.transit_gateway;" parent="Ls341-RRSWLqtu8FOZN3-118" vertex="1">
          <mxGeometry x="720" y="100" width="30" height="30" as="geometry" />
        </mxCell>
        <mxCell id="Ls341-RRSWLqtu8FOZN3-120" value="" style="sketch=0;outlineConnect=0;fontColor=#232F3E;gradientColor=none;fillColor=#4D27AA;strokeColor=none;dashed=0;verticalLabelPosition=bottom;verticalAlign=top;align=center;html=1;fontSize=12;fontStyle=0;aspect=fixed;pointerEvents=1;shape=mxgraph.aws4.application_load_balancer;" parent="Ls341-RRSWLqtu8FOZN3-118" vertex="1">
          <mxGeometry x="710" y="10" width="30" height="30" as="geometry" />
        </mxCell>
        <mxCell id="Ls341-RRSWLqtu8FOZN3-121" value="" style="sketch=0;points=[[0,0,0],[0.25,0,0],[0.5,0,0],[0.75,0,0],[1,0,0],[0,1,0],[0.25,1,0],[0.5,1,0],[0.75,1,0],[1,1,0],[0,0.25,0],[0,0.5,0],[0,0.75,0],[1,0.25,0],[1,0.5,0],[1,0.75,0]];outlineConnect=0;fontColor=#232F3E;gradientColor=#945DF2;gradientDirection=north;fillColor=#5A30B5;strokeColor=#ffffff;dashed=0;verticalLabelPosition=bottom;verticalAlign=top;align=center;html=1;fontSize=12;fontStyle=0;aspect=fixed;shape=mxgraph.aws4.resourceIcon;resIcon=mxgraph.aws4.site_to_site_vpn;" parent="Ls341-RRSWLqtu8FOZN3-118" vertex="1">
          <mxGeometry x="720" y="240" width="30" height="30" as="geometry" />
        </mxCell>
        <mxCell id="Ls341-RRSWLqtu8FOZN3-122" style="edgeStyle=orthogonalEdgeStyle;rounded=0;orthogonalLoop=1;jettySize=auto;html=1;strokeColor=#005700;fillColor=#008a00;endSize=1;startSize=1;endArrow=classic;endFill=1;startArrow=classic;startFill=1;" parent="Ls341-RRSWLqtu8FOZN3-118" source="Ls341-RRSWLqtu8FOZN3-119" target="Ls341-RRSWLqtu8FOZN3-121" edge="1">
          <mxGeometry relative="1" as="geometry">
            <mxPoint x="734.78" y="130" as="sourcePoint" />
            <mxPoint x="734.78" y="250" as="targetPoint" />
          </mxGeometry>
        </mxCell>
        <mxCell id="Ls341-RRSWLqtu8FOZN3-123" value="" style="shape=image;verticalLabelPosition=bottom;labelBackgroundColor=default;verticalAlign=top;imageAspect=0;image=data:image/png,iVBORw0KGgoAAAANSUhEUgAAAG8AAABLCAYAAAB++NlAAAAAAXNSR0IArs4c6QAAAARnQU1BAACxjwv8YQUAAAAJcEhZcwAAFxEAABcRAcom8z8AAA4dSURBVHhe7V0JdBRVFu0ghqw4KmBARAWFbKwJCZsBdYIGFJBNIM7IgUFF56hE2WHYkgAyyMwRBhh2BFHAYY56ZpSwaTrpQBINA2ETArKIJsiSkJUkb/79qV+naDqxOt3VXRX7nvNO6Ne/q979r/7/71XV+5gYujDZxWS/Rwwj/2XSjwn/B3nEcHKcCfckLVu2jPbv3+8Rncu2bduE887KzsMXHugfZ8+e9TjPqPA4z8DwOM/A8DjPwHCr83788UfpXw0LruLlNuft3buXQkNDacmSJXTjxg1Ja2yAB/iAF/hpDbc4r7CwkKKiosSJKTExUfrG2AAPwQn8wFNLuMV5M2fOlEm2aNGCTp48SRaLhZYvX05lZWVSK2MA9sJu2A8e4CO4zZgxQ2qlDVzuvH379pG/vz8/aaNGjWjz5s1UVVVFPXv25LrY2FjeCUYA7IS9sBv2gwf4eHl5cR14atmXLnXeL7/8ctt0OXLkSK6fP3++rAsICKCjR4/SlStXdLsWwi7YBzthr7AdPIDhw4fLuujoaM5bC7jUedOmTZNJtWrVii5evEjZ2dlyB+CKXbt2LVVWVlJMTAz17duXMjIypF/rA7AHdkFgJ+wVIw08wAe8wE9wnTRpEh+VzobLnIfp0sfHRya0detWru/du7ese+GFF7hu4cKFsi4kJESzK9dewA7YI2yDnQDsFjrwAcBP6IKDg/lIdTZc4rxr165RRESETEZMl3PnzpV1QUFBdP78eTp8+DAFBgbK+vfee49f4XoA7EAqIGyDnTk5OfTDDz/QAw88IOvnzZvH248ZM4YGDRpEp0+f5s67efMm1zsLLnHe5MmTZWKtW7emy5cv08GDB8nPz0/Wb9y4kbfFdCR0AwYM0F30WV5eTgMHDpRthL0A7Bc68DKbzVRcXExFRUWUmppKkZGRNGXKFN7WWdDceXv27CFfX19+EkSXH330Eb+Ce/ToIZMdNmwYb5uUlCTrEHIjINAjYFfz5s1lW5OTk7kePIQOgRl4njhxQp5JsGygP5wFTZ1XUFDArzjpBDR69GiunzNnjqxr2bLlHYELZMWKFbxtfVFVWkrll/Op+Nj3dMOcRdf2ptONtGwqOXGGKn4qoKqycqll/YDcTtgqUoJz585xPkIPnnCgMvpEf6BfnAFNnWdrukS0JqZLRGmbNm3ikVifPn3kts8//zxVVFRIR1GP6luV3Enn531AuQMnUOajT1J6026UHtiF0gOYsL+We7pR1uOxdGzwa3Q+cQVd32eh6nqsqbAPdgqbRfCyZs0aOfoETywP4A3+oi36xRnQzHkpKSm3RZcff/wxVVdX3zZdjhgxgrddsGCBrMPCn5uby/VqUVVaRvlbP6MjsWPJ8rsI+sb0KJm9OlCadxil+XSkNF+F4DPTp5ra83aWeyPY716mnz/8N1WVlEpHVAcEK0jO169fz9dCjDxg6NChMh98D97gL3ToF/SPo9DEeRcuXKCwsDDZ2Pj4eK6fNWuWrEMedOnSJYenS0yFR+PGU9rdocwhj1Nak/CaUaZS0B6/MzcO4c6/kZopHVkdSkpKeCSJ0dSmTRs6dOjQHXkeeAOIPoUO/YN2jkAT523fvl02EoQwx6elpcmBCwSBC9CrVy9ZN3jwYPXTJbuaL/1tI1nu7846/zFK9+tk0zmqhf0ex7HcG0mXlq5nw1l9Uq1cHkSeB35CB97gn5+fz/tD6Hfu3Mnb1heaOO/WrVvcMNwa2rJlCw+ZlYFLbXne8ePHuf7XUFVSRmcmJZH5rmAmIbadUU/BCDQ3CqYzbyWqnkYxeyhvSIs8DzyFDvzRD+gP9Av6B/3kCDQNWK5evcqDkenTp8sklIGLuEENWb16tfSrulHNjnfmzQU1UyRbv2w5wFHBcXH8M28nqh6BsF9wAS/wA88HH3xQ1uMpA9Y/9IszoKnzBD799FP5thJuG+GKw9WHzxDcXlJ7FV5Y/E82Mlgw4mPf2mavYC0039WBLi5dJ525bsB+5W0y8IMOIw2fwR/94Ey4xHlAXl6eHJUp1wjkRUhk1QBpgIWF/mbvUJsd7mwxsyAI0ev1AwclC+oGeCjzPPAEX/AGf2fDZc4TwO0i8ewOona6LC0spqyYeD6dpQd2tdnZThd2Hpzvf/1eosqiYsmSuqGcPsHT2fczlXC58wCkCK+88gq/46J2usxZu4tSWHBi8XUwqrRX2PkwTV9e84lkSd0An1GjRnF+4Kkl3OI8gdJSddHcpZvltPX3r5PF1I4stjpYY8HoO9xnFFUWFkkW1Q21vByFW52nFl+lHqPk+56kHJ8wm53rqOCCqPOiYDlgGltnr36ZKlmkDxjCeZOTd9LigN6U4+e8CPOQf2f61q+jTTnIvrNub/Zqz3K/BZJF+oDunVdeVU3dX3yfku7pS4ed4LyMgM78OGYWjGy5/wlKbBVHb7UZQgkPDaYlQc/Qjvt68Ta4UJSjEYl7TvehVF3hWGLtTOjeeafOXyH//gtpUos4yvV1bNrM9O/E5a9B/SkmeDx5R0whU/cZCplJgV3fpWfav0yrmj9J3/p3ZCO0JkBC2pDZph+VnHR+yF9f6N55ezJOkSlmHj3VNp5PdbamNDWSxdatrwO70ch2Y6hx5HQyRc1mzmJ/I6fdLnBi9Gzyi5xCEx8eykchHI6kPaNZNF1LMUuWuR+6d94nX+Wwjp5Bfp0T6EM2zdVn3UPnmwO60oD2f5Scxhxk7TRrYec0Rc2kcY+M4L/PwB0dNtUWbP+PZJn7oXvnbf4im0wRrDMjZtDTHcby0YfOtOUkW3JQWuPGPzKcOWMWc4yN0VabMCd7sdGZ1PJZ+q5JCKWzc+dv/VyyzP3QvfO2sZHXCNNbt6m8M199ZBh9xyLCbBWPgLBeHfELo7mtBlCTyJrf23RSXcIc/ljHNyjFrysdCuxCBTu/lCxzP3TvvC/TT5JvbzZiukzmnX8XGzljHx3J16+jLIDBKLSw0SVyNQjWRTgNo+4dFkU2QWCCadCWc35NcOEwmdM8lnLvj+CvTegFunfeibyfqdnT88nU6V2pM5kTWFTYNew1WsDC/JR7IimLOVApcOz7QbH0RPA4qX09HSck+i80qPVwyn3oCSo7XfOqgx6ge+dV3Kqk8BHLyBT+zu0dKq1frTu9ycL+cfRiu9E0pu0oimVhftuOf6bGEWyatHeNq03YcaIejqesniOJKj15nl2YmPQvMoVOurNTMaWxiNCm4Dvr9vUVdrzObV6iY+8ulizSBwzhvC++OV4zbWI02epczWUm9Wr7B7q6Wz85HuBW56m9+369qJQi4j+wPfpcIaEJNG74PBRdSBbVjQb9VAHPuSZMmMCfe6l9nrdyu4VMYQk1KYOtDtZKcL6Qt2jnFnWvqYvneeDX4J7n4clyfZ6kFxWXUY+XV7COZKOvu41O1kJwHna+ni/9nUoKf8NP0p3xDsu+zNPkE83CfpE2aC3sPN5R0ymF5Zpq0CDfYXHm22ML1++vmT6RtNvqcGdJF5bYs/MkrlW3JQfsb1Bvj2nx3mZVVTVNTN5VM312ZR1sq+MdFRyXHf81dh615cjK6dLQ723iituxYwe/+tS+MY0CE7VvTJeUVdQ4MJyNwI5WybujguOFv0OvL9xFpew8apCVlWX3G9PoH7WzTW3QxHkwTDoofzcf7+hb1yrYqklHCbDaWgWMwEUb9lNAD7YGBrNR6GgUit8Hv01Ne82iJZu/5iNELVDxKjigVA1Q1qQbqlYB1S9hiiohVMcAs2fPlnVY2FGDjqtWWSWEokV78HV2Hj31p1U1IwZTqb1rIdrjdyw4iX11NaXl2HfvElVC2Ghg6tSp3DGoxwMvZeAC3oCySig8PFyfVUKAdX0ettS1rs9DbTegrM/D9GNvfV5xaQVt+iyLYsavIh+MxMffrEnoO7OoFOuXtXRmDkPQw9oheo1hzv/w82w2Tdo3jYn6vHXr1vEZA/V5qISNi4uT+eB78FZsKcz7Zffu3dJR6g9NAxZlSiACFdSveXt7c8GaB4CwstTrueeeq1dlbGVlFe3J+J7mrEqhZ99YR63jkulu5hwvaZThb2MW+gf1T6TYiWto9j++opSMU/x39sK6MlbUpQMoZxYcMzMzOW9DVcYC1jXpuPMArFy5Ur7ysIsCpg841Zk16WXlt+inK4V04lw+pX6bx3K1U/RN1hk6lvcTXS4oVB2M1AbrmnRsFICRhzJtAPzAE7tZGLImHbDeDQIJK4C9S8TuCSiqBJS7QWC3hSNHjnC93gC7mjVrJtsqRh144DOcJUqcMbWK3SDQD4bZDUJAGY0h70HZM6YToYPUtg8L7lDoCbAHdgkbxT4sGzZskHWQ9PR0vkcZbo+JfVgQ1DgTLnHe9evXb9sBSWwkYJ3nYTRiB6SmTZvK+sWLF/M1UQ+AHbBH2IYRBXtr2wEJhTRYFw29AxKAvceUeR6SVUCZ5w0ZMoTrFi1aJOuwa6ye9h6DPcI22AnAbqETNenithikQ4cOxt17TEB5mwx5EAIV690gsI8JrnCx6x/yJj0B9sCufv36cTthr7AdPMAHy4Iyz0tISFB9m80euNR5uHKV+23a2ocFkRsCAlypet5vE1xgp/L+LHgADXK/TQDHFoQRfYodkESe179/f0PtdAt7YTfsBw/wETsggeeBAwek1s6Hy50HWO8xjedgRt5jGjkpniKAh/IGNXhqCbc4D7ueK5/nNcTd3cGvQe7uDiD6ROS2dOlS3a5t9gI8wAe8wE9ruM15AO75NUQ0+P/RxAPH4XGegeFxnoHhcZ6B4XGegeFxnoFh03keMZxw541lUiopPGIYMU37P2th2RcJXJ38AAAAAElFTkSuQmCC;aspect=fixed;" parent="Ls341-RRSWLqtu8FOZN3-113" vertex="1">
          <mxGeometry y="30" width="50" height="30" as="geometry" />
        </mxCell>
        <mxCell id="Ls341-RRSWLqtu8FOZN3-124" style="edgeStyle=orthogonalEdgeStyle;rounded=0;orthogonalLoop=1;jettySize=auto;html=1;strokeColor=#005700;fillColor=#008a00;endSize=1;startSize=1;exitX=0.5;exitY=1;exitDx=0;exitDy=0;exitPerimeter=0;startArrow=classic;startFill=1;" parent="Ls341-RRSWLqtu8FOZN3-113" source="Ls341-RRSWLqtu8FOZN3-121" target="Ls341-RRSWLqtu8FOZN3-115" edge="1">
          <mxGeometry relative="1" as="geometry">
            <mxPoint x="667" y="410" as="sourcePoint" />
            <mxPoint x="194" y="485" as="targetPoint" />
            <Array as="points">
              <mxPoint x="745" y="420" />
              <mxPoint x="745" y="420" />
            </Array>
          </mxGeometry>
        </mxCell>
        <mxCell id="Ls341-RRSWLqtu8FOZN3-125" value="" style="edgeStyle=orthogonalEdgeStyle;rounded=0;orthogonalLoop=1;jettySize=auto;html=1;endArrow=classic;endFill=1;startArrow=classic;startFill=1;fillColor=#008a00;strokeColor=#005700;strokeWidth=1;endSize=1;startSize=1;" parent="1" source="Ls341-RRSWLqtu8FOZN3-133" target="Ls341-RRSWLqtu8FOZN3-140" edge="1">
          <mxGeometry relative="1" as="geometry">
            <Array as="points">
              <mxPoint x="830" y="265" />
            </Array>
          </mxGeometry>
        </mxCell>
        <mxCell id="Ls341-RRSWLqtu8FOZN3-126" style="edgeStyle=orthogonalEdgeStyle;rounded=0;orthogonalLoop=1;jettySize=auto;html=1;strokeColor=#B20000;fillColor=#e51400;exitX=0.5;exitY=1;exitDx=0;exitDy=0;exitPerimeter=0;strokeWidth=1;endSize=3;startSize=3;startArrow=classic;startFill=1;" parent="1" source="Ls341-RRSWLqtu8FOZN3-138" target="Ls341-RRSWLqtu8FOZN3-131" edge="1">
          <mxGeometry relative="1" as="geometry">
            <mxPoint x="815" y="55" as="sourcePoint" />
            <mxPoint x="400" y="90" as="targetPoint" />
            <Array as="points">
              <mxPoint x="830" y="60" />
              <mxPoint x="1255" y="60" />
            </Array>
          </mxGeometry>
        </mxCell>
        <mxCell id="Ls341-RRSWLqtu8FOZN3-127" value="AWS GLOBAL" style="points=[[0,0],[0.25,0],[0.5,0],[0.75,0],[1,0],[1,0.25],[1,0.5],[1,0.75],[1,1],[0.75,1],[0.5,1],[0.25,1],[0,1],[0,0.75],[0,0.5],[0,0.25]];outlineConnect=0;gradientColor=none;html=1;whiteSpace=wrap;fontSize=12;fontStyle=0;container=0;pointerEvents=0;collapsible=0;recursiveResize=0;shape=mxgraph.aws4.group;grIcon=mxgraph.aws4.group_aws_cloud;strokeColor=#232F3E;fillColor=none;verticalAlign=top;align=left;spacingLeft=30;fontColor=#232F3E;dashed=0;" parent="1" vertex="1">
          <mxGeometry x="10" y="10" width="1640" height="440" as="geometry" />
        </mxCell>
        <mxCell id="Ls341-RRSWLqtu8FOZN3-128" value="" style="edgeStyle=orthogonalEdgeStyle;rounded=0;orthogonalLoop=1;jettySize=auto;html=1;endArrow=classic;endFill=1;startArrow=classic;startFill=1;fillColor=#e51400;strokeColor=#B20000;strokeWidth=1;endSize=3;startSize=1;" parent="1" source="Ls341-RRSWLqtu8FOZN3-157" target="Ls341-RRSWLqtu8FOZN3-136" edge="1">
          <mxGeometry relative="1" as="geometry">
            <mxPoint x="206" y="710" as="sourcePoint" />
            <mxPoint x="815" y="731" as="targetPoint" />
            <Array as="points">
              <mxPoint x="625" y="710" />
            </Array>
          </mxGeometry>
        </mxCell>
        <mxCell id="Ls341-RRSWLqtu8FOZN3-129" value="" style="edgeStyle=orthogonalEdgeStyle;rounded=0;orthogonalLoop=1;jettySize=auto;html=1;endArrow=classic;endFill=1;startArrow=classic;startFill=1;fillColor=#e51400;strokeColor=#B20000;strokeWidth=1;endSize=3;startSize=3;exitX=0.5;exitY=1;exitDx=0;exitDy=0;exitPerimeter=0;" parent="1" source="Ls341-RRSWLqtu8FOZN3-210" target="Ls341-RRSWLqtu8FOZN3-136" edge="1">
          <mxGeometry relative="1" as="geometry">
            <mxPoint x="760" y="620" as="sourcePoint" />
            <mxPoint x="845" y="731" as="targetPoint" />
            <Array as="points">
              <mxPoint x="1035" y="710" />
            </Array>
          </mxGeometry>
        </mxCell>
        <mxCell id="Ls341-RRSWLqtu8FOZN3-130" value="IDC SINGAPORE" style="points=[[0,0],[0.25,0],[0.5,0],[0.75,0],[1,0],[1,0.25],[1,0.5],[1,0.75],[1,1],[0.75,1],[0.5,1],[0.25,1],[0,1],[0,0.75],[0,0.5],[0,0.25]];outlineConnect=0;gradientColor=none;html=1;whiteSpace=wrap;fontSize=12;fontStyle=0;container=1;pointerEvents=0;collapsible=0;recursiveResize=0;shape=mxgraph.aws4.group;grIcon=mxgraph.aws4.group_corporate_data_center;strokeColor=#5A6C86;fillColor=none;verticalAlign=top;align=right;spacingLeft=30;fontColor=#5A6C86;dashed=0;flipH=1;spacingBottom=0;spacingRight=30;" parent="1" vertex="1">
          <mxGeometry x="870" y="460" width="760" height="300" as="geometry" />
        </mxCell>
        <mxCell id="Ls341-RRSWLqtu8FOZN3-131" value="AWS SINGAPORE" style="points=[[0,0],[0.25,0],[0.5,0],[0.75,0],[1,0],[1,0.25],[1,0.5],[1,0.75],[1,1],[0.75,1],[0.5,1],[0.25,1],[0,1],[0,0.75],[0,0.5],[0,0.25]];outlineConnect=0;gradientColor=none;html=1;whiteSpace=wrap;fontSize=12;fontStyle=0;container=1;pointerEvents=0;collapsible=0;recursiveResize=0;shape=mxgraph.aws4.group;grIcon=mxgraph.aws4.group_aws_cloud;strokeColor=#232F3E;fillColor=none;verticalAlign=top;align=right;spacingLeft=30;fontColor=#232F3E;dashed=0;flipH=1;spacingRight=30;" parent="1" vertex="1">
          <mxGeometry x="870" y="140" width="760" height="300" as="geometry" />
        </mxCell>
        <mxCell id="Ls341-RRSWLqtu8FOZN3-132" value="" style="sketch=0;points=[[0,0,0],[0.25,0,0],[0.5,0,0],[0.75,0,0],[1,0,0],[0,1,0],[0.25,1,0],[0.5,1,0],[0.75,1,0],[1,1,0],[0,0.25,0],[0,0.5,0],[0,0.75,0],[1,0.25,0],[1,0.5,0],[1,0.75,0]];outlineConnect=0;fontColor=#232F3E;gradientColor=#945DF2;gradientDirection=north;fillColor=#5A30B5;strokeColor=#ffffff;dashed=0;verticalLabelPosition=bottom;verticalAlign=top;align=center;html=1;fontSize=12;fontStyle=0;aspect=fixed;shape=mxgraph.aws4.resourceIcon;resIcon=mxgraph.aws4.site_to_site_vpn;" parent="1" vertex="1">
          <mxGeometry x="880" y="380" width="30" height="30" as="geometry" />
        </mxCell>
        <mxCell id="Ls341-RRSWLqtu8FOZN3-133" value="" style="sketch=0;points=[[0,0,0],[0.25,0,0],[0.5,0,0],[0.75,0,0],[1,0,0],[0,1,0],[0.25,1,0],[0.5,1,0],[0.75,1,0],[1,1,0],[0,0.25,0],[0,0.5,0],[0,0.75,0],[1,0.25,0],[1,0.5,0],[1,0.75,0]];outlineConnect=0;fontColor=#232F3E;gradientColor=#945DF2;gradientDirection=north;fillColor=#5A30B5;strokeColor=#ffffff;dashed=0;verticalLabelPosition=bottom;verticalAlign=top;align=center;html=1;fontSize=12;fontStyle=0;aspect=fixed;shape=mxgraph.aws4.resourceIcon;resIcon=mxgraph.aws4.transit_gateway;" parent="1" vertex="1">
          <mxGeometry x="880" y="240" width="30" height="30" as="geometry" />
        </mxCell>
        <mxCell id="Ls341-RRSWLqtu8FOZN3-134" style="edgeStyle=orthogonalEdgeStyle;rounded=0;orthogonalLoop=1;jettySize=auto;html=1;strokeColor=#005700;fillColor=#008a00;endSize=1;startSize=1;endArrow=classic;endFill=1;exitX=0.5;exitY=1;exitDx=0;exitDy=0;exitPerimeter=0;entryX=0.5;entryY=0;entryDx=0;entryDy=0;entryPerimeter=0;startArrow=classic;startFill=1;" parent="1" source="Ls341-RRSWLqtu8FOZN3-133" target="Ls341-RRSWLqtu8FOZN3-132" edge="1">
          <mxGeometry relative="1" as="geometry">
            <mxPoint x="884.83" y="330" as="sourcePoint" />
            <mxPoint x="890" y="420" as="targetPoint" />
          </mxGeometry>
        </mxCell>
        <mxCell id="Ls341-RRSWLqtu8FOZN3-135" value="" style="shape=image;verticalLabelPosition=bottom;labelBackgroundColor=default;verticalAlign=top;imageAspect=0;image=data:image/png,iVBORw0KGgoAAAANSUhEUgAAAG4AAABLCAMAAACm5EJMAAAAAXNSR0IArs4c6QAAAARnQU1BAACxjwv8YQUAAAJwUExURQAAAAAAAAAAAAAAAAAAAAAAAAAAAAAAAAAAAAAAAAAAAH0AAJIAAKYAAKcAALJfX7+/v8IAAMMAANBvb9oAANsAANwAAN0AAN4AAN4BAd4CAt8AAN8BAd8CAt8DA98EBN8FBd/f3+ACAuAGBuAHB+AICOAJCeAKCuALC+AMDOANDeAODuAPD+ELC+ENDeEPD+EQEOEREeESEuETE+EUFOEVFeEWFuEXF+IUFOIWFuIXF+IZGeIaGuIbG+IeHuIfH+IgIOMfH+MgIOMiIuMlJeMmJuMnJ+MoKOQkJOQmJuQnJ+QoKOQqKuQrK+QsLOQtLeUuLuU0NOU6OuU9PeU+PuY1NeY6OuY7O+Y9PeY+PuY/P+c9Pec/P+dAQOdCQudDQ+dEROdGRuhHR+hISOhLS+hMTOhNTelMTOlPT+lQUOlRUelSUulTU+lUVOlXV+pTU+paWutaWutkZOtmZuxnZ+xoaOxpaexqauxra+xsbOxtbexubu1xce1ycu1zc+10dO11de13d+15ee51de52du56eu5/f+99fe9+fu+Dg++EhO+Hh/CHh/CJifCKivGNjfGRkfGTk/GXl/KWlvKXl/KZmfKdnfOfn/OgoPOhofOkpPOmpvSlpfSnp/SoqPSqqvSvr/WurvWxsfWysvW0tPa1tfa4uPa5ufa8vPe/v/fGxvjDw/jExPjGxvjKyvjLy/jNzfnOzvnR0fnS0vnT0/nU1PnV1fra2vrb2/ve3vvf3/vg4Pvh4fvi4vvj4/vl5fzk5Pzo6Pzq6vzr6/3t7f3v7/309P709P719f75+f76+v/6+v/8/P/9/f/+/v///2uWquAAAAAKdFJOUzBAYHivt7/X3/dorhOJAAAACXBIWXMAABcRAAAXEQHKJvM/AAAC6UlEQVRoQ+3W+VtNQRgH8Gspuch+583UDZU2a3YhKiTKrqwhIlkja6lEyVbJni1L9jW7kEKh7vxLZuacep659/rpvo4fnO8vd955znM+zzsz59xjsXT2NixeHSxeVgPTxeJt7eZrULpbfTjnSw1Kn/+RAyCEAOgVXtxyhE5ZX3S64vjaEH0CLW44oOmXGlsZazi7KlCfQosrR2ZebWGMOcrj5WIGh2nTOHHhSNpbjrH6TG3nbPMLMLfQmYO0r0L7tJTIMnZ56buNC4fIMUacODL7g9CaMjQN5lTzRvcFovWnchB4Q2isTGjCIPOaWbVGo0TlyAapfYwW1DB/PrGtcteFKF4ED5QXeBqV87sluVOEAonO5WfEf3owGR/Fq7QtBGNFFQ6SGoT2M4XQ2MUl79NXjOCvF76o/smLqh6nLkFoUOHITtncq0kAMVe+sy/5+jPnl/Kwlb3OsmuVJ1G5Y5K7aectJTSx235t60e2M1aMcWLUxayQ3EV+Y1hzPadqchsHeeUlZRiHReUqJXde9JEQRuImtHGDkwASw/XCk6jcCcldE4o4I+1nUYzaC0+i7l2O5B4N1289eqL2a48LQcGcuWXNgvs2V96c9D+yo58Y2SIvj7WJGc+jLmbEU9neHrF5AZmFdQ8Or6Y0+uAZx7lDU7VLPIzCUSiS3JMg3tSAlbWM1SRTGrn/F3McGKpf4lmcuDFvBOfIFu3ZClp+bOKLCAHPG1+E4myeylGyVbZXN4O/NcOPrtucx+dgQeGs3FSMh9yFo1AqvfvjgAaFAkTwfwUayh8CpI8kZ47aT0rvbgxOO05x4Shk1wuvNgNQ/nLUuHIUEis+C/BOVrwR35n8lTVtd2XNs5f39o7E7s8dx0FCQkZFoX5hanHP8QCPPkTMH7m/E43rIXoxIr0l17PYoPSVXC9x8I3IIJPDi8khxuQQY3KIMTnEmBxiTA4xJocYk0OMySHG5BDzTzgD42Pp2FUfGhBrp9/cmvlB3h2k7AAAAABJRU5ErkJggg==;aspect=fixed;" parent="1" vertex="1">
          <mxGeometry x="1590" y="100" width="50" height="30" as="geometry" />
        </mxCell>
        <mxCell id="Ls341-RRSWLqtu8FOZN3-136" value="" style="sketch=0;outlineConnect=0;fontColor=#232F3E;gradientColor=none;fillColor=#4D27AA;strokeColor=none;dashed=0;verticalLabelPosition=bottom;verticalAlign=top;align=center;html=1;fontSize=12;fontStyle=0;aspect=fixed;pointerEvents=1;shape=mxgraph.aws4.peering;" parent="1" vertex="1">
          <mxGeometry x="810" y="690" width="40" height="40" as="geometry" />
        </mxCell>
        <mxCell id="Ls341-RRSWLqtu8FOZN3-137" value="SINGAPORE" style="points=[[0,0],[0.25,0],[0.5,0],[0.75,0],[1,0],[1,0.25],[1,0.5],[1,0.75],[1,1],[0.75,1],[0.5,1],[0.25,1],[0,1],[0,0.75],[0,0.5],[0,0.25]];outlineConnect=0;gradientColor=none;html=1;whiteSpace=wrap;fontSize=12;fontStyle=0;container=0;pointerEvents=0;collapsible=0;recursiveResize=0;shape=mxgraph.aws4.group;grIcon=mxgraph.aws4.group_region;strokeColor=#147EBA;fillColor=none;verticalAlign=top;align=right;spacingLeft=30;fontColor=#147EBA;dashed=1;flipH=1;spacingRight=30;" parent="1" vertex="1">
          <mxGeometry x="860" y="70" width="780" height="700" as="geometry" />
        </mxCell>
        <mxCell id="Ls341-RRSWLqtu8FOZN3-138" value="" style="sketch=0;points=[[0,0,0],[0.25,0,0],[0.5,0,0],[0.75,0,0],[1,0,0],[0,1,0],[0.25,1,0],[0.5,1,0],[0.75,1,0],[1,1,0],[0,0.25,0],[0,0.5,0],[0,0.75,0],[1,0.25,0],[1,0.5,0],[1,0.75,0]];outlineConnect=0;fontColor=#232F3E;gradientColor=#945DF2;gradientDirection=north;fillColor=#5A30B5;strokeColor=#ffffff;dashed=0;verticalLabelPosition=bottom;verticalAlign=top;align=center;html=1;fontSize=12;fontStyle=0;aspect=fixed;shape=mxgraph.aws4.resourceIcon;resIcon=mxgraph.aws4.global_accelerator;" parent="1" vertex="1">
          <mxGeometry x="810" y="10" width="40" height="40" as="geometry" />
        </mxCell>
        <mxCell id="Ls341-RRSWLqtu8FOZN3-139" value="" style="sketch=0;points=[[0,0,0],[0.25,0,0],[0.5,0,0],[0.75,0,0],[1,0,0],[0,1,0],[0.25,1,0],[0.5,1,0],[0.75,1,0],[1,1,0],[0,0.25,0],[0,0.5,0],[0,0.75,0],[1,0.25,0],[1,0.5,0],[1,0.75,0]];outlineConnect=0;fontColor=#232F3E;gradientColor=#945DF2;gradientDirection=north;fillColor=#5A30B5;strokeColor=#ffffff;dashed=0;verticalLabelPosition=bottom;verticalAlign=top;align=center;html=1;fontSize=12;fontStyle=0;aspect=fixed;shape=mxgraph.aws4.resourceIcon;resIcon=mxgraph.aws4.route_53;" parent="1" vertex="1">
          <mxGeometry x="810" y="70" width="40" height="40" as="geometry" />
        </mxCell>
        <mxCell id="Ls341-RRSWLqtu8FOZN3-140" value="" style="sketch=0;outlineConnect=0;fontColor=#232F3E;gradientColor=none;fillColor=#4D27AA;strokeColor=none;dashed=0;verticalLabelPosition=bottom;verticalAlign=top;align=center;html=1;fontSize=12;fontStyle=0;aspect=fixed;pointerEvents=1;shape=mxgraph.aws4.peering;" parent="1" vertex="1">
          <mxGeometry x="810" y="235" width="40" height="40" as="geometry" />
        </mxCell>
        <mxCell id="Ls341-RRSWLqtu8FOZN3-141" value="" style="edgeStyle=orthogonalEdgeStyle;rounded=0;orthogonalLoop=1;jettySize=auto;html=1;endArrow=classic;endFill=1;startArrow=classic;startFill=1;fillColor=#008a00;strokeColor=#005700;strokeWidth=1;endSize=1;startSize=1;" parent="1" source="Ls341-RRSWLqtu8FOZN3-119" target="Ls341-RRSWLqtu8FOZN3-140" edge="1">
          <mxGeometry relative="1" as="geometry">
            <mxPoint x="810" y="290" as="sourcePoint" />
            <mxPoint x="810" y="305" as="targetPoint" />
            <Array as="points">
              <mxPoint x="830" y="265" />
            </Array>
          </mxGeometry>
        </mxCell>
        <mxCell id="Ls341-RRSWLqtu8FOZN3-142" style="edgeStyle=orthogonalEdgeStyle;rounded=0;orthogonalLoop=1;jettySize=auto;html=1;strokeColor=#B20000;fillColor=#e51400;exitX=0.5;exitY=1;exitDx=0;exitDy=0;exitPerimeter=0;endSize=3;startSize=3;endArrow=classic;endFill=1;startArrow=classic;startFill=1;" parent="1" source="Ls341-RRSWLqtu8FOZN3-138" target="Ls341-RRSWLqtu8FOZN3-120" edge="1">
          <mxGeometry relative="1" as="geometry">
            <mxPoint x="659" y="110" as="sourcePoint" />
            <mxPoint x="490" y="200" as="targetPoint" />
            <Array as="points">
              <mxPoint x="830" y="60" />
              <mxPoint x="755" y="60" />
            </Array>
          </mxGeometry>
        </mxCell>
        <mxCell id="Ls341-RRSWLqtu8FOZN3-143" style="edgeStyle=orthogonalEdgeStyle;rounded=0;orthogonalLoop=1;jettySize=auto;html=1;strokeColor=#B20000;fillColor=#e51400;endSize=3;startSize=3;entryX=0.5;entryY=0;entryDx=0;entryDy=0;entryPerimeter=0;startArrow=classic;startFill=1;" parent="1" source="Ls341-RRSWLqtu8FOZN3-120" target="Ls341-RRSWLqtu8FOZN3-171" edge="1">
          <mxGeometry relative="1" as="geometry">
            <mxPoint x="394" y="175" as="sourcePoint" />
            <mxPoint x="625" y="230" as="targetPoint" />
            <Array as="points">
              <mxPoint x="625" y="165" />
            </Array>
          </mxGeometry>
        </mxCell>
        <mxCell id="Ls341-RRSWLqtu8FOZN3-144" style="edgeStyle=orthogonalEdgeStyle;rounded=0;orthogonalLoop=1;jettySize=auto;html=1;strokeColor=#005700;fillColor=#008a00;endSize=1;startSize=1;startArrow=classic;startFill=1;exitX=0.25;exitY=1;exitDx=0;exitDy=0;exitPerimeter=0;entryX=0.75;entryY=1;entryDx=0;entryDy=0;entryPerimeter=0;" parent="1" source="Ls341-RRSWLqtu8FOZN3-171" target="Ls341-RRSWLqtu8FOZN3-175" edge="1">
          <mxGeometry relative="1" as="geometry">
            <mxPoint x="631" y="270" as="sourcePoint" />
            <mxPoint x="271" y="200" as="targetPoint" />
            <Array as="points">
              <mxPoint x="617" y="280" />
              <mxPoint x="193" y="280" />
            </Array>
          </mxGeometry>
        </mxCell>
        <mxCell id="Ls341-RRSWLqtu8FOZN3-145" value="ZONE b" style="fillColor=none;strokeColor=#147EBA;dashed=1;verticalAlign=top;fontStyle=0;fontColor=#147EBA;whiteSpace=wrap;html=1;" parent="1" vertex="1">
          <mxGeometry x="270" y="210" width="210" height="170" as="geometry" />
        </mxCell>
        <mxCell id="Ls341-RRSWLqtu8FOZN3-146" value="" style="edgeStyle=orthogonalEdgeStyle;rounded=0;orthogonalLoop=1;jettySize=auto;html=1;strokeColor=#B20000;fillColor=#e51400;endSize=3;startSize=3;entryX=0.5;entryY=0;entryDx=0;entryDy=0;entryPerimeter=0;startArrow=classic;startFill=1;" parent="1" source="Ls341-RRSWLqtu8FOZN3-120" target="Ls341-RRSWLqtu8FOZN3-175" edge="1">
          <mxGeometry relative="1" as="geometry">
            <mxPoint x="403" y="405" as="sourcePoint" />
            <mxPoint x="234" y="445" as="targetPoint" />
            <Array as="points">
              <mxPoint x="185" y="165" />
            </Array>
          </mxGeometry>
        </mxCell>
        <mxCell id="Ls341-RRSWLqtu8FOZN3-147" value="" style="edgeStyle=orthogonalEdgeStyle;rounded=0;orthogonalLoop=1;jettySize=auto;html=1;endArrow=classic;endFill=1;startArrow=classic;startFill=1;fillColor=#0050ef;strokeColor=#001DBC;strokeWidth=1;endSize=1;startSize=1;entryX=0.5;entryY=1;entryDx=0;entryDy=0;entryPerimeter=0;" parent="1" edge="1">
          <mxGeometry relative="1" as="geometry">
            <mxPoint x="624.94" y="290" as="sourcePoint" />
            <mxPoint x="624.94" y="270" as="targetPoint" />
            <Array as="points">
              <mxPoint x="624.94" y="290" />
            </Array>
          </mxGeometry>
        </mxCell>
        <mxCell id="Ls341-RRSWLqtu8FOZN3-148" value="" style="edgeStyle=orthogonalEdgeStyle;rounded=0;orthogonalLoop=1;jettySize=auto;html=1;endArrow=classic;endFill=1;startArrow=classic;startFill=1;fillColor=#0050ef;strokeColor=#001DBC;strokeWidth=1;endSize=1;startSize=1;entryX=0.5;entryY=1;entryDx=0;entryDy=0;entryPerimeter=0;" parent="1" edge="1">
          <mxGeometry relative="1" as="geometry">
            <mxPoint x="184.94" y="290" as="sourcePoint" />
            <mxPoint x="184.94" y="270" as="targetPoint" />
            <Array as="points">
              <mxPoint x="184.94" y="290" />
            </Array>
          </mxGeometry>
        </mxCell>
        <mxCell id="Ls341-RRSWLqtu8FOZN3-149" value="" style="sketch=0;outlineConnect=0;fontColor=#232F3E;gradientColor=none;fillColor=#4D27AA;strokeColor=none;dashed=0;verticalLabelPosition=bottom;verticalAlign=top;align=center;html=1;fontSize=12;fontStyle=0;aspect=fixed;pointerEvents=1;shape=mxgraph.aws4.transit_gateway_attachment;" parent="1" vertex="1">
          <mxGeometry x="710" y="245" width="20" height="20" as="geometry" />
        </mxCell>
        <mxCell id="Ls341-RRSWLqtu8FOZN3-150" value="" style="edgeStyle=orthogonalEdgeStyle;rounded=0;orthogonalLoop=1;jettySize=auto;html=1;strokeColor=#005700;fillColor=#008a00;endSize=1;startSize=1;entryX=1;entryY=0.5;entryDx=0;entryDy=0;startArrow=classic;startFill=1;entryPerimeter=0;exitX=0;exitY=0.5;exitDx=0;exitDy=0;exitPerimeter=0;" parent="1" source="Ls341-RRSWLqtu8FOZN3-119" target="Ls341-RRSWLqtu8FOZN3-149" edge="1">
          <mxGeometry relative="1" as="geometry">
            <mxPoint x="750" y="280" as="sourcePoint" />
            <mxPoint x="640" y="255" as="targetPoint" />
            <Array as="points">
              <mxPoint x="740" y="255" />
              <mxPoint x="740" y="255" />
            </Array>
          </mxGeometry>
        </mxCell>
        <mxCell id="Ls341-RRSWLqtu8FOZN3-151" value="" style="sketch=0;outlineConnect=0;fontColor=#232F3E;gradientColor=none;fillColor=#4D27AA;strokeColor=none;dashed=0;verticalLabelPosition=bottom;verticalAlign=top;align=center;html=1;fontSize=12;fontStyle=0;aspect=fixed;pointerEvents=1;shape=mxgraph.aws4.internet_gateway;" parent="1" vertex="1">
          <mxGeometry x="361" y="170" width="20" height="20" as="geometry" />
        </mxCell>
        <mxCell id="Ls341-RRSWLqtu8FOZN3-152" value="&lt;font color=&quot;#828c8c&quot;&gt;VPC1&lt;/font&gt;" style="points=[[0,0],[0.25,0],[0.5,0],[0.75,0],[1,0],[1,0.25],[1,0.5],[1,0.75],[1,1],[0.75,1],[0.5,1],[0.25,1],[0,1],[0,0.75],[0,0.5],[0,0.25]];outlineConnect=0;gradientColor=none;html=1;whiteSpace=wrap;fontSize=12;fontStyle=0;container=1;pointerEvents=0;collapsible=0;recursiveResize=0;shape=mxgraph.aws4.group;grIcon=mxgraph.aws4.group_vpc;strokeColor=#248814;fillColor=none;verticalAlign=top;align=left;spacingLeft=30;fontColor=#AAB7B8;dashed=0;" parent="1" vertex="1">
          <mxGeometry x="40" y="180" width="680" height="230" as="geometry" />
        </mxCell>
        <mxCell id="Ls341-RRSWLqtu8FOZN3-153" value="" style="sketch=0;points=[[0,0,0],[0.25,0,0],[0.5,0,0],[0.75,0,0],[1,0,0],[0,1,0],[0.25,1,0],[0.5,1,0],[0.75,1,0],[1,1,0],[0,0.25,0],[0,0.5,0],[0,0.75,0],[1,0.25,0],[1,0.5,0],[1,0.75,0]];outlineConnect=0;fontColor=#232F3E;gradientColor=#F78E04;gradientDirection=north;fillColor=#D05C17;strokeColor=#ffffff;dashed=0;verticalLabelPosition=bottom;verticalAlign=top;align=center;html=1;fontSize=12;fontStyle=0;aspect=fixed;shape=mxgraph.aws4.resourceIcon;resIcon=mxgraph.aws4.ec2;" parent="1" vertex="1">
          <mxGeometry x="610" y="560" width="30" height="30" as="geometry" />
        </mxCell>
        <mxCell id="Ls341-RRSWLqtu8FOZN3-154" value="ZONE b" style="fillColor=none;strokeColor=#147EBA;dashed=1;verticalAlign=top;fontStyle=0;fontColor=#147EBA;whiteSpace=wrap;html=1;" parent="1" vertex="1">
          <mxGeometry x="270" y="530" width="210" height="170" as="geometry" />
        </mxCell>
        <mxCell id="Ls341-RRSWLqtu8FOZN3-155" value="ZONE c" style="fillColor=none;strokeColor=#147EBA;dashed=1;verticalAlign=top;fontStyle=0;fontColor=#147EBA;whiteSpace=wrap;html=1;" parent="1" vertex="1">
          <mxGeometry x="50" y="530" width="210" height="170" as="geometry" />
        </mxCell>
        <mxCell id="Ls341-RRSWLqtu8FOZN3-156" value="&lt;font style=&quot;font-size: 10px;&quot;&gt;SN2&lt;/font&gt;" style="points=[[0,0],[0.25,0],[0.5,0],[0.75,0],[1,0],[1,0.25],[1,0.5],[1,0.75],[1,1],[0.75,1],[0.5,1],[0.25,1],[0,1],[0,0.75],[0,0.5],[0,0.25]];outlineConnect=0;gradientColor=none;html=1;whiteSpace=wrap;fontSize=12;fontStyle=0;container=0;pointerEvents=0;collapsible=0;recursiveResize=0;shape=mxgraph.aws4.group;grIcon=mxgraph.aws4.group_security_group;grStroke=0;strokeColor=#147EBA;fillColor=#E6F2F8;verticalAlign=top;align=left;spacingLeft=30;fontColor=#147EBA;dashed=0;movable=1;resizable=1;rotatable=1;deletable=1;editable=1;locked=0;connectable=1;" parent="1" vertex="1">
          <mxGeometry x="500" y="610" width="190" height="30" as="geometry" />
        </mxCell>
        <mxCell id="Ls341-RRSWLqtu8FOZN3-157" value="" style="sketch=0;points=[[0,0,0],[0.25,0,0],[0.5,0,0],[0.75,0,0],[1,0,0],[0,1,0],[0.25,1,0],[0.5,1,0],[0.75,1,0],[1,1,0],[0,0.25,0],[0,0.5,0],[0,0.75,0],[1,0.25,0],[1,0.5,0],[1,0.75,0]];outlineConnect=0;fontColor=#232F3E;gradientColor=#F78E04;gradientDirection=north;fillColor=#D05C17;strokeColor=#ffffff;dashed=0;verticalLabelPosition=bottom;verticalAlign=top;align=center;html=1;fontSize=12;fontStyle=0;aspect=fixed;shape=mxgraph.aws4.resourceIcon;resIcon=mxgraph.aws4.ec2;" parent="1" vertex="1">
          <mxGeometry x="610" y="610" width="30" height="30" as="geometry" />
        </mxCell>
        <mxCell id="Ls341-RRSWLqtu8FOZN3-158" value="" style="sketch=0;points=[[0,0,0],[0.25,0,0],[0.5,0,0],[0.75,0,0],[1,0,0],[0,1,0],[0.25,1,0],[0.5,1,0],[0.75,1,0],[1,1,0],[0,0.25,0],[0,0.5,0],[0,0.75,0],[1,0.25,0],[1,0.5,0],[1,0.75,0]];outlineConnect=0;fontColor=#232F3E;gradientColor=#F78E04;gradientDirection=north;fillColor=#D05C17;strokeColor=#ffffff;dashed=0;verticalLabelPosition=bottom;verticalAlign=top;align=center;html=1;fontSize=12;fontStyle=0;aspect=fixed;shape=mxgraph.aws4.resourceIcon;resIcon=mxgraph.aws4.ec2;" parent="1" vertex="1">
          <mxGeometry x="650" y="610" width="30" height="30" as="geometry" />
        </mxCell>
        <mxCell id="Ls341-RRSWLqtu8FOZN3-159" value="" style="sketch=0;outlineConnect=0;fontColor=#232F3E;gradientColor=none;fillColor=#4D27AA;strokeColor=none;dashed=0;verticalLabelPosition=bottom;verticalAlign=top;align=center;html=1;fontSize=12;fontStyle=0;aspect=fixed;pointerEvents=1;shape=mxgraph.aws4.internet_gateway;" parent="1" vertex="1">
          <mxGeometry x="361" y="490" width="20" height="20" as="geometry" />
        </mxCell>
        <mxCell id="Ls341-RRSWLqtu8FOZN3-160" style="edgeStyle=orthogonalEdgeStyle;rounded=0;orthogonalLoop=1;jettySize=auto;html=1;strokeColor=#005700;fillColor=#008a00;endSize=1;startSize=1;startArrow=classic;startFill=1;entryX=0.5;entryY=0;entryDx=0;entryDy=0;entryPerimeter=0;" parent="1" source="Ls341-RRSWLqtu8FOZN3-115" target="Ls341-RRSWLqtu8FOZN3-153" edge="1">
          <mxGeometry relative="1" as="geometry">
            <mxPoint x="764.76" y="510" as="sourcePoint" />
            <mxPoint x="764.76" y="570" as="targetPoint" />
            <Array as="points">
              <mxPoint x="625" y="485" />
            </Array>
          </mxGeometry>
        </mxCell>
        <mxCell id="Ls341-RRSWLqtu8FOZN3-161" value="" style="edgeStyle=orthogonalEdgeStyle;rounded=0;orthogonalLoop=1;jettySize=auto;html=1;endArrow=classic;endFill=1;startArrow=classic;startFill=1;fillColor=#0050ef;strokeColor=#001DBC;strokeWidth=1;endSize=1;startSize=1;entryX=0.5;entryY=1;entryDx=0;entryDy=0;entryPerimeter=0;" parent="1" edge="1">
          <mxGeometry relative="1" as="geometry">
            <mxPoint x="624.9000000000001" y="610" as="sourcePoint" />
            <mxPoint x="624.9000000000001" y="590" as="targetPoint" />
            <Array as="points">
              <mxPoint x="624.9000000000001" y="610" />
            </Array>
          </mxGeometry>
        </mxCell>
        <mxCell id="Ls341-RRSWLqtu8FOZN3-162" value="" style="edgeStyle=orthogonalEdgeStyle;rounded=0;orthogonalLoop=1;jettySize=auto;html=1;endArrow=classic;endFill=1;startArrow=classic;startFill=1;fillColor=#0050ef;strokeColor=#001DBC;strokeWidth=1;endSize=1;startSize=1;entryX=0.5;entryY=1;entryDx=0;entryDy=0;entryPerimeter=0;exitX=0.5;exitY=0;exitDx=0;exitDy=0;exitPerimeter=0;" parent="1" source="Ls341-RRSWLqtu8FOZN3-158" target="Ls341-RRSWLqtu8FOZN3-153" edge="1">
          <mxGeometry relative="1" as="geometry">
            <mxPoint x="634.9000000000001" y="620" as="sourcePoint" />
            <mxPoint x="634.9000000000001" y="600" as="targetPoint" />
            <Array as="points">
              <mxPoint x="665" y="600" />
              <mxPoint x="625" y="600" />
            </Array>
          </mxGeometry>
        </mxCell>
        <mxCell id="Ls341-RRSWLqtu8FOZN3-163" value="" style="group" parent="1" vertex="1" connectable="0">
          <mxGeometry x="500" y="290" width="190" height="30" as="geometry" />
        </mxCell>
        <mxCell id="Ls341-RRSWLqtu8FOZN3-164" value="&lt;font style=&quot;font-size: 10px;&quot;&gt;SN2&lt;/font&gt;" style="points=[[0,0],[0.25,0],[0.5,0],[0.75,0],[1,0],[1,0.25],[1,0.5],[1,0.75],[1,1],[0.75,1],[0.5,1],[0.25,1],[0,1],[0,0.75],[0,0.5],[0,0.25]];outlineConnect=0;gradientColor=none;html=1;whiteSpace=wrap;fontSize=12;fontStyle=0;container=0;pointerEvents=0;collapsible=0;recursiveResize=0;shape=mxgraph.aws4.group;grIcon=mxgraph.aws4.group_security_group;grStroke=0;strokeColor=#147EBA;fillColor=#E6F2F8;verticalAlign=top;align=left;spacingLeft=30;fontColor=#147EBA;dashed=0;movable=1;resizable=1;rotatable=1;deletable=1;editable=1;locked=0;connectable=1;" parent="Ls341-RRSWLqtu8FOZN3-163" vertex="1">
          <mxGeometry width="190" height="30" as="geometry" />
        </mxCell>
        <mxCell id="Ls341-RRSWLqtu8FOZN3-165" value="" style="sketch=0;points=[[0,0,0],[0.25,0,0],[0.5,0,0],[0.75,0,0],[1,0,0],[0,1,0],[0.25,1,0],[0.5,1,0],[0.75,1,0],[1,1,0],[0,0.25,0],[0,0.5,0],[0,0.75,0],[1,0.25,0],[1,0.5,0],[1,0.75,0]];outlineConnect=0;fontColor=#232F3E;gradientColor=#F78E04;gradientDirection=north;fillColor=#D05C17;strokeColor=#ffffff;dashed=0;verticalLabelPosition=bottom;verticalAlign=top;align=center;html=1;fontSize=12;fontStyle=0;aspect=fixed;shape=mxgraph.aws4.resourceIcon;resIcon=mxgraph.aws4.ec2;container=0;" parent="Ls341-RRSWLqtu8FOZN3-163" vertex="1">
          <mxGeometry x="110" width="30" height="30" as="geometry" />
        </mxCell>
        <mxCell id="Ls341-RRSWLqtu8FOZN3-166" value="" style="sketch=0;outlineConnect=0;fontColor=#232F3E;gradientColor=none;fillColor=#4D27AA;strokeColor=none;dashed=0;verticalLabelPosition=bottom;verticalAlign=top;align=center;html=1;fontSize=12;fontStyle=0;aspect=fixed;pointerEvents=1;shape=mxgraph.aws4.hosted_zone;container=0;" parent="Ls341-RRSWLqtu8FOZN3-163" vertex="1">
          <mxGeometry x="110" width="30" height="30" as="geometry" />
        </mxCell>
        <mxCell id="Ls341-RRSWLqtu8FOZN3-167" value="" style="sketch=0;outlineConnect=0;fontColor=#232F3E;gradientColor=none;fillColor=#4D27AA;strokeColor=none;dashed=0;verticalLabelPosition=bottom;verticalAlign=top;align=center;html=1;fontSize=12;fontStyle=0;aspect=fixed;pointerEvents=1;shape=mxgraph.aws4.route_53_resolver;container=0;" parent="Ls341-RRSWLqtu8FOZN3-163" vertex="1">
          <mxGeometry x="60" width="30" height="30" as="geometry" />
        </mxCell>
        <mxCell id="Ls341-RRSWLqtu8FOZN3-168" value="" style="group" parent="1" vertex="1" connectable="0">
          <mxGeometry x="500" y="240" width="190" height="30" as="geometry" />
        </mxCell>
        <mxCell id="Ls341-RRSWLqtu8FOZN3-169" value="&lt;font style=&quot;font-size: 10px;&quot;&gt;SN1&lt;/font&gt;" style="points=[[0,0],[0.25,0],[0.5,0],[0.75,0],[1,0],[1,0.25],[1,0.5],[1,0.75],[1,1],[0.75,1],[0.5,1],[0.25,1],[0,1],[0,0.75],[0,0.5],[0,0.25]];outlineConnect=0;gradientColor=none;html=1;whiteSpace=wrap;fontSize=12;fontStyle=0;container=0;pointerEvents=0;collapsible=0;recursiveResize=0;shape=mxgraph.aws4.group;grIcon=mxgraph.aws4.group_security_group;grStroke=0;strokeColor=#248814;fillColor=#E9F3E6;verticalAlign=top;align=left;spacingLeft=30;fontColor=#248814;dashed=0;" parent="Ls341-RRSWLqtu8FOZN3-168" vertex="1">
          <mxGeometry width="190" height="30" as="geometry" />
        </mxCell>
        <mxCell id="Ls341-RRSWLqtu8FOZN3-170" value="" style="sketch=0;outlineConnect=0;fontColor=#232F3E;gradientColor=none;fillColor=#4D27AA;strokeColor=none;dashed=0;verticalLabelPosition=bottom;verticalAlign=top;align=center;html=1;fontSize=12;fontStyle=0;aspect=fixed;pointerEvents=1;shape=mxgraph.aws4.route_53_resolver;" parent="Ls341-RRSWLqtu8FOZN3-168" vertex="1">
          <mxGeometry x="60" width="30" height="30" as="geometry" />
        </mxCell>
        <mxCell id="Ls341-RRSWLqtu8FOZN3-171" value="" style="sketch=0;points=[[0,0,0],[0.25,0,0],[0.5,0,0],[0.75,0,0],[1,0,0],[0,1,0],[0.25,1,0],[0.5,1,0],[0.75,1,0],[1,1,0],[0,0.25,0],[0,0.5,0],[0,0.75,0],[1,0.25,0],[1,0.5,0],[1,0.75,0]];outlineConnect=0;fontColor=#232F3E;gradientColor=#F78E04;gradientDirection=north;fillColor=#D05C17;strokeColor=#ffffff;dashed=0;verticalLabelPosition=bottom;verticalAlign=top;align=center;html=1;fontSize=12;fontStyle=0;aspect=fixed;shape=mxgraph.aws4.resourceIcon;resIcon=mxgraph.aws4.ec2;" parent="Ls341-RRSWLqtu8FOZN3-168" vertex="1">
          <mxGeometry x="110" width="30" height="30" as="geometry" />
        </mxCell>
        <mxCell id="Ls341-RRSWLqtu8FOZN3-172" style="edgeStyle=orthogonalEdgeStyle;rounded=0;orthogonalLoop=1;jettySize=auto;html=1;strokeColor=#005700;fillColor=#008a00;endSize=1;startSize=1;entryX=1;entryY=0.5;entryDx=0;entryDy=0;exitX=0;exitY=0.5;exitDx=0;exitDy=0;exitPerimeter=0;startArrow=classic;startFill=1;entryPerimeter=0;" parent="1" source="Ls341-RRSWLqtu8FOZN3-149" target="Ls341-RRSWLqtu8FOZN3-171" edge="1">
          <mxGeometry relative="1" as="geometry">
            <mxPoint x="689" y="200" as="sourcePoint" />
            <mxPoint x="640" y="245" as="targetPoint" />
            <Array as="points" />
          </mxGeometry>
        </mxCell>
        <mxCell id="Ls341-RRSWLqtu8FOZN3-173" value="" style="group" parent="1" vertex="1" connectable="0">
          <mxGeometry x="60" y="240" width="190" height="30" as="geometry" />
        </mxCell>
        <mxCell id="Ls341-RRSWLqtu8FOZN3-174" value="&lt;font style=&quot;font-size: 10px;&quot;&gt;SN1&lt;/font&gt;" style="points=[[0,0],[0.25,0],[0.5,0],[0.75,0],[1,0],[1,0.25],[1,0.5],[1,0.75],[1,1],[0.75,1],[0.5,1],[0.25,1],[0,1],[0,0.75],[0,0.5],[0,0.25]];outlineConnect=0;gradientColor=none;html=1;whiteSpace=wrap;fontSize=12;fontStyle=0;container=1;pointerEvents=0;collapsible=0;recursiveResize=0;shape=mxgraph.aws4.group;grIcon=mxgraph.aws4.group_security_group;grStroke=0;strokeColor=#248814;fillColor=#E9F3E6;verticalAlign=top;align=left;spacingLeft=30;fontColor=#248814;dashed=0;" parent="Ls341-RRSWLqtu8FOZN3-173" vertex="1">
          <mxGeometry width="190" height="30" as="geometry" />
        </mxCell>
        <mxCell id="Ls341-RRSWLqtu8FOZN3-175" value="" style="sketch=0;points=[[0,0,0],[0.25,0,0],[0.5,0,0],[0.75,0,0],[1,0,0],[0,1,0],[0.25,1,0],[0.5,1,0],[0.75,1,0],[1,1,0],[0,0.25,0],[0,0.5,0],[0,0.75,0],[1,0.25,0],[1,0.5,0],[1,0.75,0]];outlineConnect=0;fontColor=#232F3E;gradientColor=#F78E04;gradientDirection=north;fillColor=#D05C17;strokeColor=#ffffff;dashed=0;verticalLabelPosition=bottom;verticalAlign=top;align=center;html=1;fontSize=12;fontStyle=0;aspect=fixed;shape=mxgraph.aws4.resourceIcon;resIcon=mxgraph.aws4.ec2;" parent="Ls341-RRSWLqtu8FOZN3-173" vertex="1">
          <mxGeometry x="110" width="30" height="30" as="geometry" />
        </mxCell>
        <mxCell id="Ls341-RRSWLqtu8FOZN3-176" value="" style="sketch=0;outlineConnect=0;fontColor=#232F3E;gradientColor=none;fillColor=#4D27AA;strokeColor=none;dashed=0;verticalLabelPosition=bottom;verticalAlign=top;align=center;html=1;fontSize=12;fontStyle=0;aspect=fixed;pointerEvents=1;shape=mxgraph.aws4.route_53_resolver;" parent="Ls341-RRSWLqtu8FOZN3-173" vertex="1">
          <mxGeometry x="60" width="30" height="30" as="geometry" />
        </mxCell>
        <mxCell id="Ls341-RRSWLqtu8FOZN3-177" value="" style="group" parent="1" vertex="1" connectable="0">
          <mxGeometry x="60" y="290" width="190" height="30" as="geometry" />
        </mxCell>
        <mxCell id="Ls341-RRSWLqtu8FOZN3-178" value="" style="group" parent="Ls341-RRSWLqtu8FOZN3-177" vertex="1" connectable="0">
          <mxGeometry width="190" height="30" as="geometry" />
        </mxCell>
        <mxCell id="Ls341-RRSWLqtu8FOZN3-179" value="&lt;font style=&quot;font-size: 10px;&quot;&gt;SN2&lt;/font&gt;" style="points=[[0,0],[0.25,0],[0.5,0],[0.75,0],[1,0],[1,0.25],[1,0.5],[1,0.75],[1,1],[0.75,1],[0.5,1],[0.25,1],[0,1],[0,0.75],[0,0.5],[0,0.25]];outlineConnect=0;gradientColor=none;html=1;whiteSpace=wrap;fontSize=12;fontStyle=0;container=0;pointerEvents=0;collapsible=0;recursiveResize=0;shape=mxgraph.aws4.group;grIcon=mxgraph.aws4.group_security_group;grStroke=0;strokeColor=#147EBA;fillColor=#E6F2F8;verticalAlign=top;align=left;spacingLeft=30;fontColor=#147EBA;dashed=0;" parent="Ls341-RRSWLqtu8FOZN3-178" vertex="1">
          <mxGeometry width="190" height="30" as="geometry" />
        </mxCell>
        <mxCell id="Ls341-RRSWLqtu8FOZN3-180" value="" style="sketch=0;outlineConnect=0;fontColor=#232F3E;gradientColor=none;fillColor=#4D27AA;strokeColor=none;dashed=0;verticalLabelPosition=bottom;verticalAlign=top;align=center;html=1;fontSize=12;fontStyle=0;aspect=fixed;pointerEvents=1;shape=mxgraph.aws4.route_53_resolver;container=0;" parent="Ls341-RRSWLqtu8FOZN3-177" vertex="1">
          <mxGeometry x="60" width="30" height="30" as="geometry" />
        </mxCell>
        <mxCell id="Ls341-RRSWLqtu8FOZN3-181" value="" style="sketch=0;points=[[0,0,0],[0.25,0,0],[0.5,0,0],[0.75,0,0],[1,0,0],[0,1,0],[0.25,1,0],[0.5,1,0],[0.75,1,0],[1,1,0],[0,0.25,0],[0,0.5,0],[0,0.75,0],[1,0.25,0],[1,0.5,0],[1,0.75,0]];outlineConnect=0;fontColor=#232F3E;gradientColor=#F78E04;gradientDirection=north;fillColor=#D05C17;strokeColor=#ffffff;dashed=0;verticalLabelPosition=bottom;verticalAlign=top;align=center;html=1;fontSize=12;fontStyle=0;aspect=fixed;shape=mxgraph.aws4.resourceIcon;resIcon=mxgraph.aws4.ec2;container=0;" parent="Ls341-RRSWLqtu8FOZN3-177" vertex="1">
          <mxGeometry x="110" width="30" height="30" as="geometry" />
        </mxCell>
        <mxCell id="Ls341-RRSWLqtu8FOZN3-182" value="" style="sketch=0;outlineConnect=0;fontColor=#232F3E;gradientColor=none;fillColor=#4D27AA;strokeColor=none;dashed=0;verticalLabelPosition=bottom;verticalAlign=top;align=center;html=1;fontSize=12;fontStyle=0;aspect=fixed;pointerEvents=1;shape=mxgraph.aws4.hosted_zone;container=0;" parent="Ls341-RRSWLqtu8FOZN3-177" vertex="1">
          <mxGeometry x="110" width="30" height="30" as="geometry" />
        </mxCell>
        <mxCell id="Ls341-RRSWLqtu8FOZN3-183" value="" style="sketch=0;outlineConnect=0;fontColor=#232F3E;gradientColor=none;fillColor=#4D27AA;strokeColor=none;dashed=0;verticalLabelPosition=bottom;verticalAlign=top;align=center;html=1;fontSize=12;fontStyle=0;aspect=fixed;pointerEvents=1;shape=mxgraph.aws4.transit_gateway_attachment;" parent="1" vertex="1">
          <mxGeometry x="930" y="245" width="20" height="20" as="geometry" />
        </mxCell>
        <mxCell id="Ls341-RRSWLqtu8FOZN3-184" value="" style="edgeStyle=orthogonalEdgeStyle;rounded=0;orthogonalLoop=1;jettySize=auto;html=1;endArrow=classic;endFill=1;startArrow=classic;startFill=1;fillColor=#008a00;strokeColor=#005700;strokeWidth=1;endSize=1;startSize=1;" parent="1" target="Ls341-RRSWLqtu8FOZN3-183" edge="1">
          <mxGeometry relative="1" as="geometry">
            <mxPoint x="910" y="255" as="sourcePoint" />
            <mxPoint x="860" y="265" as="targetPoint" />
            <Array as="points">
              <mxPoint x="920" y="255" />
              <mxPoint x="920" y="255" />
            </Array>
          </mxGeometry>
        </mxCell>
        <mxCell id="Ls341-RRSWLqtu8FOZN3-185" value="&lt;font color=&quot;#828c8c&quot;&gt;VPC1&lt;/font&gt;" style="points=[[0,0],[0.25,0],[0.5,0],[0.75,0],[1,0],[1,0.25],[1,0.5],[1,0.75],[1,1],[0.75,1],[0.5,1],[0.25,1],[0,1],[0,0.75],[0,0.5],[0,0.25]];outlineConnect=0;gradientColor=none;html=1;whiteSpace=wrap;fontSize=12;fontStyle=0;container=1;pointerEvents=0;collapsible=0;recursiveResize=0;shape=mxgraph.aws4.group;grIcon=mxgraph.aws4.group_vpc;strokeColor=#248814;fillColor=none;verticalAlign=top;align=right;spacingLeft=30;fontColor=#AAB7B8;dashed=0;flipH=1;spacingRight=30;" parent="1" vertex="1">
          <mxGeometry x="940" y="180" width="680" height="230" as="geometry" />
        </mxCell>
        <mxCell id="Ls341-RRSWLqtu8FOZN3-186" value="ZONE a" style="fillColor=none;strokeColor=#147EBA;dashed=1;verticalAlign=top;fontStyle=0;fontColor=#147EBA;whiteSpace=wrap;html=1;" parent="1" vertex="1">
          <mxGeometry x="960" y="210" width="210" height="170" as="geometry" />
        </mxCell>
        <mxCell id="Ls341-RRSWLqtu8FOZN3-187" value="ZONE c" style="fillColor=none;strokeColor=#147EBA;dashed=1;verticalAlign=top;fontStyle=0;fontColor=#147EBA;whiteSpace=wrap;html=1;" parent="1" vertex="1">
          <mxGeometry x="1400" y="210" width="210" height="170" as="geometry" />
        </mxCell>
        <mxCell id="Ls341-RRSWLqtu8FOZN3-188" value="ZONE b" style="fillColor=none;strokeColor=#147EBA;dashed=1;verticalAlign=top;fontStyle=0;fontColor=#147EBA;whiteSpace=wrap;html=1;" parent="1" vertex="1">
          <mxGeometry x="1180" y="210" width="210" height="170" as="geometry" />
        </mxCell>
        <mxCell id="Ls341-RRSWLqtu8FOZN3-189" value="&lt;font style=&quot;font-size: 10px;&quot;&gt;SN1&lt;/font&gt;" style="points=[[0,0],[0.25,0],[0.5,0],[0.75,0],[1,0],[1,0.25],[1,0.5],[1,0.75],[1,1],[0.75,1],[0.5,1],[0.25,1],[0,1],[0,0.75],[0,0.5],[0,0.25]];outlineConnect=0;gradientColor=none;html=1;whiteSpace=wrap;fontSize=12;fontStyle=0;container=0;pointerEvents=0;collapsible=0;recursiveResize=0;shape=mxgraph.aws4.group;grIcon=mxgraph.aws4.group_security_group;grStroke=0;strokeColor=#248814;fillColor=#E9F3E6;verticalAlign=top;align=right;spacingLeft=30;fontColor=#248814;dashed=0;flipH=1;spacingRight=30;" parent="1" vertex="1">
          <mxGeometry x="970" y="240" width="190" height="30" as="geometry" />
        </mxCell>
        <mxCell id="Ls341-RRSWLqtu8FOZN3-190" value="" style="sketch=0;outlineConnect=0;fontColor=#232F3E;gradientColor=none;fillColor=#4D27AA;strokeColor=none;dashed=0;verticalLabelPosition=bottom;verticalAlign=top;align=center;html=1;fontSize=12;fontStyle=0;aspect=fixed;pointerEvents=1;shape=mxgraph.aws4.route_53_resolver;flipH=1;spacingRight=10;" parent="1" vertex="1">
          <mxGeometry x="1070" y="240" width="30" height="30" as="geometry" />
        </mxCell>
        <mxCell id="Ls341-RRSWLqtu8FOZN3-191" value="" style="sketch=0;points=[[0,0,0],[0.25,0,0],[0.5,0,0],[0.75,0,0],[1,0,0],[0,1,0],[0.25,1,0],[0.5,1,0],[0.75,1,0],[1,1,0],[0,0.25,0],[0,0.5,0],[0,0.75,0],[1,0.25,0],[1,0.5,0],[1,0.75,0]];outlineConnect=0;fontColor=#232F3E;gradientColor=#F78E04;gradientDirection=north;fillColor=#D05C17;strokeColor=#ffffff;dashed=0;verticalLabelPosition=bottom;verticalAlign=top;align=center;html=1;fontSize=12;fontStyle=0;aspect=fixed;shape=mxgraph.aws4.resourceIcon;resIcon=mxgraph.aws4.ec2;flipH=1;spacingRight=10;" parent="1" vertex="1">
          <mxGeometry x="1020" y="240" width="30" height="30" as="geometry" />
        </mxCell>
        <mxCell id="Ls341-RRSWLqtu8FOZN3-192" value="&lt;font style=&quot;font-size: 10px;&quot;&gt;SN2&lt;/font&gt;" style="points=[[0,0],[0.25,0],[0.5,0],[0.75,0],[1,0],[1,0.25],[1,0.5],[1,0.75],[1,1],[0.75,1],[0.5,1],[0.25,1],[0,1],[0,0.75],[0,0.5],[0,0.25]];outlineConnect=0;gradientColor=none;html=1;whiteSpace=wrap;fontSize=12;fontStyle=0;container=0;pointerEvents=0;collapsible=0;recursiveResize=0;shape=mxgraph.aws4.group;grIcon=mxgraph.aws4.group_security_group;grStroke=0;strokeColor=#147EBA;fillColor=#E6F2F8;verticalAlign=top;align=right;spacingLeft=30;fontColor=#147EBA;dashed=0;movable=1;resizable=1;rotatable=1;deletable=1;editable=1;locked=0;connectable=1;flipH=1;spacingRight=30;" parent="1" vertex="1">
          <mxGeometry x="970" y="290" width="190" height="30" as="geometry" />
        </mxCell>
        <mxCell id="Ls341-RRSWLqtu8FOZN3-193" value="" style="sketch=0;points=[[0,0,0],[0.25,0,0],[0.5,0,0],[0.75,0,0],[1,0,0],[0,1,0],[0.25,1,0],[0.5,1,0],[0.75,1,0],[1,1,0],[0,0.25,0],[0,0.5,0],[0,0.75,0],[1,0.25,0],[1,0.5,0],[1,0.75,0]];outlineConnect=0;fontColor=#232F3E;gradientColor=#F78E04;gradientDirection=north;fillColor=#D05C17;strokeColor=#ffffff;dashed=0;verticalLabelPosition=bottom;verticalAlign=top;align=right;html=1;fontSize=12;fontStyle=0;aspect=fixed;shape=mxgraph.aws4.resourceIcon;resIcon=mxgraph.aws4.ec2;container=0;flipH=1;spacingRight=30;" parent="1" vertex="1">
          <mxGeometry x="1020" y="290" width="30" height="30" as="geometry" />
        </mxCell>
        <mxCell id="Ls341-RRSWLqtu8FOZN3-194" value="" style="sketch=0;outlineConnect=0;fontColor=#232F3E;gradientColor=none;fillColor=#4D27AA;strokeColor=none;dashed=0;verticalLabelPosition=bottom;verticalAlign=top;align=right;html=1;fontSize=12;fontStyle=0;aspect=fixed;pointerEvents=1;shape=mxgraph.aws4.hosted_zone;container=0;flipH=1;spacingRight=30;" parent="1" vertex="1">
          <mxGeometry x="1020" y="290" width="30" height="30" as="geometry" />
        </mxCell>
        <mxCell id="Ls341-RRSWLqtu8FOZN3-195" value="" style="sketch=0;outlineConnect=0;fontColor=#232F3E;gradientColor=none;fillColor=#4D27AA;strokeColor=none;dashed=0;verticalLabelPosition=bottom;verticalAlign=top;align=right;html=1;fontSize=12;fontStyle=0;aspect=fixed;pointerEvents=1;shape=mxgraph.aws4.route_53_resolver;container=0;flipH=1;spacingRight=30;" parent="1" vertex="1">
          <mxGeometry x="1070" y="290" width="30" height="30" as="geometry" />
        </mxCell>
        <mxCell id="Ls341-RRSWLqtu8FOZN3-196" style="edgeStyle=orthogonalEdgeStyle;rounded=0;orthogonalLoop=1;jettySize=auto;html=1;strokeColor=#005700;fillColor=#008a00;endSize=1;startSize=1;entryX=1;entryY=0.5;entryDx=0;entryDy=0;exitX=0;exitY=0.5;exitDx=0;exitDy=0;exitPerimeter=0;startArrow=classic;startFill=1;entryPerimeter=0;" parent="1" edge="1">
          <mxGeometry relative="1" as="geometry">
            <mxPoint x="1020" y="254.76" as="sourcePoint" />
            <mxPoint x="950" y="254.76" as="targetPoint" />
            <Array as="points" />
          </mxGeometry>
        </mxCell>
        <mxCell id="Ls341-RRSWLqtu8FOZN3-197" value="" style="group;flipH=0;" parent="1" vertex="1" connectable="0">
          <mxGeometry x="1410" y="290" width="190" height="30" as="geometry" />
        </mxCell>
        <mxCell id="Ls341-RRSWLqtu8FOZN3-198" value="&lt;font style=&quot;font-size: 10px;&quot;&gt;SN2&lt;/font&gt;" style="points=[[0,0],[0.25,0],[0.5,0],[0.75,0],[1,0],[1,0.25],[1,0.5],[1,0.75],[1,1],[0.75,1],[0.5,1],[0.25,1],[0,1],[0,0.75],[0,0.5],[0,0.25]];outlineConnect=0;gradientColor=none;html=1;whiteSpace=wrap;fontSize=12;fontStyle=0;container=0;pointerEvents=0;collapsible=0;recursiveResize=0;shape=mxgraph.aws4.group;grIcon=mxgraph.aws4.group_security_group;grStroke=0;strokeColor=#147EBA;fillColor=#E6F2F8;verticalAlign=top;align=right;spacingLeft=30;fontColor=#147EBA;dashed=0;flipH=1;spacingRight=30;" parent="Ls341-RRSWLqtu8FOZN3-197" vertex="1">
          <mxGeometry width="190" height="30" as="geometry" />
        </mxCell>
        <mxCell id="Ls341-RRSWLqtu8FOZN3-199" value="" style="sketch=0;outlineConnect=0;fontColor=#232F3E;gradientColor=none;fillColor=#4D27AA;strokeColor=none;dashed=0;verticalLabelPosition=bottom;verticalAlign=top;align=center;html=1;fontSize=12;fontStyle=0;aspect=fixed;pointerEvents=1;shape=mxgraph.aws4.route_53_resolver;container=0;flipH=0;" parent="1" vertex="1">
          <mxGeometry x="1510" y="290" width="30" height="30" as="geometry" />
        </mxCell>
        <mxCell id="Ls341-RRSWLqtu8FOZN3-200" value="" style="sketch=0;outlineConnect=0;fontColor=#232F3E;gradientColor=none;fillColor=#4D27AA;strokeColor=none;dashed=0;verticalLabelPosition=bottom;verticalAlign=top;align=center;html=1;fontSize=12;fontStyle=0;aspect=fixed;pointerEvents=1;shape=mxgraph.aws4.hosted_zone;container=0;flipH=0;" parent="1" vertex="1">
          <mxGeometry x="1460" y="290" width="30" height="30" as="geometry" />
        </mxCell>
        <mxCell id="Ls341-RRSWLqtu8FOZN3-201" value="&lt;font color=&quot;#828c8c&quot;&gt;VPC1&lt;/font&gt;" style="points=[[0,0],[0.25,0],[0.5,0],[0.75,0],[1,0],[1,0.25],[1,0.5],[1,0.75],[1,1],[0.75,1],[0.5,1],[0.25,1],[0,1],[0,0.75],[0,0.5],[0,0.25]];outlineConnect=0;gradientColor=none;html=1;whiteSpace=wrap;fontSize=12;fontStyle=0;container=1;pointerEvents=0;collapsible=0;recursiveResize=0;shape=mxgraph.aws4.group;grIcon=mxgraph.aws4.group_vpc;strokeColor=#248814;fillColor=none;verticalAlign=top;align=right;spacingLeft=30;fontColor=#AAB7B8;dashed=0;flipH=1;spacingRight=30;" parent="1" vertex="1">
          <mxGeometry x="940" y="500" width="680" height="230" as="geometry" />
        </mxCell>
        <mxCell id="Ls341-RRSWLqtu8FOZN3-202" value="ZONE a" style="fillColor=none;strokeColor=#147EBA;dashed=1;verticalAlign=top;fontStyle=0;fontColor=#147EBA;whiteSpace=wrap;html=1;" parent="1" vertex="1">
          <mxGeometry x="960" y="530" width="210" height="170" as="geometry" />
        </mxCell>
        <mxCell id="Ls341-RRSWLqtu8FOZN3-203" value="ZONE c" style="fillColor=none;strokeColor=#147EBA;dashed=1;verticalAlign=top;fontStyle=0;fontColor=#147EBA;whiteSpace=wrap;html=1;" parent="1" vertex="1">
          <mxGeometry x="1400" y="530" width="210" height="170" as="geometry" />
        </mxCell>
        <mxCell id="Ls341-RRSWLqtu8FOZN3-204" value="ZONE b" style="fillColor=none;strokeColor=#147EBA;dashed=1;verticalAlign=top;fontStyle=0;fontColor=#147EBA;whiteSpace=wrap;html=1;" parent="1" vertex="1">
          <mxGeometry x="1180" y="530" width="210" height="170" as="geometry" />
        </mxCell>
        <mxCell id="Ls341-RRSWLqtu8FOZN3-205" value="&lt;font style=&quot;font-size: 10px;&quot;&gt;SN1&lt;/font&gt;" style="points=[[0,0],[0.25,0],[0.5,0],[0.75,0],[1,0],[1,0.25],[1,0.5],[1,0.75],[1,1],[0.75,1],[0.5,1],[0.25,1],[0,1],[0,0.75],[0,0.5],[0,0.25]];outlineConnect=0;gradientColor=none;html=1;whiteSpace=wrap;fontSize=12;fontStyle=0;container=0;pointerEvents=0;collapsible=0;recursiveResize=0;shape=mxgraph.aws4.group;grIcon=mxgraph.aws4.group_security_group;grStroke=0;strokeColor=#248814;fillColor=#E9F3E6;verticalAlign=top;align=right;spacingLeft=30;fontColor=#248814;dashed=0;flipH=1;spacingRight=30;" parent="1" vertex="1">
          <mxGeometry x="970" y="560" width="190" height="30" as="geometry" />
        </mxCell>
        <mxCell id="Ls341-RRSWLqtu8FOZN3-206" value="" style="sketch=0;points=[[0,0,0],[0.25,0,0],[0.5,0,0],[0.75,0,0],[1,0,0],[0,1,0],[0.25,1,0],[0.5,1,0],[0.75,1,0],[1,1,0],[0,0.25,0],[0,0.5,0],[0,0.75,0],[1,0.25,0],[1,0.5,0],[1,0.75,0]];outlineConnect=0;fontColor=#232F3E;gradientColor=#F78E04;gradientDirection=north;fillColor=#D05C17;strokeColor=#ffffff;dashed=0;verticalLabelPosition=bottom;verticalAlign=top;align=center;html=1;fontSize=12;fontStyle=0;aspect=fixed;shape=mxgraph.aws4.resourceIcon;resIcon=mxgraph.aws4.ec2;flipH=1;spacingRight=10;" parent="1" vertex="1">
          <mxGeometry x="1020" y="560" width="30" height="30" as="geometry" />
        </mxCell>
        <mxCell id="Ls341-RRSWLqtu8FOZN3-207" value="&lt;font style=&quot;font-size: 10px;&quot;&gt;SN2&lt;/font&gt;" style="points=[[0,0],[0.25,0],[0.5,0],[0.75,0],[1,0],[1,0.25],[1,0.5],[1,0.75],[1,1],[0.75,1],[0.5,1],[0.25,1],[0,1],[0,0.75],[0,0.5],[0,0.25]];outlineConnect=0;gradientColor=none;html=1;whiteSpace=wrap;fontSize=12;fontStyle=0;container=0;pointerEvents=0;collapsible=0;recursiveResize=0;shape=mxgraph.aws4.group;grIcon=mxgraph.aws4.group_security_group;grStroke=0;strokeColor=#147EBA;fillColor=#E6F2F8;verticalAlign=top;align=right;spacingLeft=30;fontColor=#147EBA;dashed=0;movable=1;resizable=1;rotatable=1;deletable=1;editable=1;locked=0;connectable=1;flipH=1;spacingRight=30;" parent="1" vertex="1">
          <mxGeometry x="970" y="610" width="190" height="30" as="geometry" />
        </mxCell>
        <mxCell id="Ls341-RRSWLqtu8FOZN3-208" value="" style="sketch=0;points=[[0,0,0],[0.25,0,0],[0.5,0,0],[0.75,0,0],[1,0,0],[0,1,0],[0.25,1,0],[0.5,1,0],[0.75,1,0],[1,1,0],[0,0.25,0],[0,0.5,0],[0,0.75,0],[1,0.25,0],[1,0.5,0],[1,0.75,0]];outlineConnect=0;fontColor=#232F3E;gradientColor=#F78E04;gradientDirection=north;fillColor=#D05C17;strokeColor=#ffffff;dashed=0;verticalLabelPosition=bottom;verticalAlign=top;align=right;html=1;fontSize=12;fontStyle=0;aspect=fixed;shape=mxgraph.aws4.resourceIcon;resIcon=mxgraph.aws4.ec2;container=0;flipH=1;spacingRight=30;" parent="1" vertex="1">
          <mxGeometry x="980" y="610" width="30" height="30" as="geometry" />
        </mxCell>
        <mxCell id="Ls341-RRSWLqtu8FOZN3-209" style="edgeStyle=orthogonalEdgeStyle;rounded=0;orthogonalLoop=1;jettySize=auto;html=1;strokeColor=#005700;fillColor=#008a00;endSize=1;startSize=1;exitX=0.5;exitY=0;exitDx=0;exitDy=0;exitPerimeter=0;startArrow=classic;startFill=1;" parent="1" source="Ls341-RRSWLqtu8FOZN3-206" target="Ls341-RRSWLqtu8FOZN3-212" edge="1">
          <mxGeometry relative="1" as="geometry">
            <mxPoint x="1020" y="574.76" as="sourcePoint" />
            <mxPoint x="950" y="574.76" as="targetPoint" />
            <Array as="points">
              <mxPoint x="1035" y="485" />
            </Array>
          </mxGeometry>
        </mxCell>
        <mxCell id="Ls341-RRSWLqtu8FOZN3-210" value="" style="sketch=0;points=[[0,0,0],[0.25,0,0],[0.5,0,0],[0.75,0,0],[1,0,0],[0,1,0],[0.25,1,0],[0.5,1,0],[0.75,1,0],[1,1,0],[0,0.25,0],[0,0.5,0],[0,0.75,0],[1,0.25,0],[1,0.5,0],[1,0.75,0]];outlineConnect=0;fontColor=#232F3E;gradientColor=#F78E04;gradientDirection=north;fillColor=#D05C17;strokeColor=#ffffff;dashed=0;verticalLabelPosition=bottom;verticalAlign=top;align=right;html=1;fontSize=12;fontStyle=0;aspect=fixed;shape=mxgraph.aws4.resourceIcon;resIcon=mxgraph.aws4.ec2;container=0;flipH=1;spacingRight=30;" parent="1" vertex="1">
          <mxGeometry x="1020" y="610" width="30" height="30" as="geometry" />
        </mxCell>
        <mxCell id="Ls341-RRSWLqtu8FOZN3-211" value="" style="edgeStyle=orthogonalEdgeStyle;rounded=0;orthogonalLoop=1;jettySize=auto;html=1;endArrow=classic;endFill=1;startArrow=classic;startFill=1;fillColor=#0050ef;strokeColor=#001DBC;strokeWidth=1;endSize=1;startSize=1;entryX=0.5;entryY=1;entryDx=0;entryDy=0;entryPerimeter=0;exitX=0.5;exitY=0;exitDx=0;exitDy=0;exitPerimeter=0;" parent="1" source="Ls341-RRSWLqtu8FOZN3-210" target="Ls341-RRSWLqtu8FOZN3-206" edge="1">
          <mxGeometry relative="1" as="geometry">
            <mxPoint x="1080" y="610" as="sourcePoint" />
            <mxPoint x="1040" y="590" as="targetPoint" />
            <Array as="points">
              <mxPoint x="1035" y="610" />
              <mxPoint x="1035" y="590" />
            </Array>
          </mxGeometry>
        </mxCell>
        <mxCell id="Ls341-RRSWLqtu8FOZN3-212" value="" style="sketch=0;outlineConnect=0;fontColor=#232F3E;gradientColor=none;fillColor=#4D27AA;strokeColor=none;dashed=0;verticalLabelPosition=bottom;verticalAlign=top;align=center;html=1;fontSize=12;fontStyle=0;aspect=fixed;pointerEvents=1;shape=mxgraph.aws4.vpn_gateway;" parent="1" vertex="1">
          <mxGeometry x="880" y="470" width="30" height="30" as="geometry" />
        </mxCell>
        <mxCell id="Ls341-RRSWLqtu8FOZN3-213" style="edgeStyle=orthogonalEdgeStyle;rounded=0;orthogonalLoop=1;jettySize=auto;html=1;strokeColor=#005700;fillColor=#008a00;endSize=1;startSize=1;exitX=0.5;exitY=1;exitDx=0;exitDy=0;exitPerimeter=0;startArrow=classic;startFill=1;" parent="1" edge="1">
          <mxGeometry relative="1" as="geometry">
            <mxPoint x="894.83" y="410" as="sourcePoint" />
            <mxPoint x="894.83" y="470" as="targetPoint" />
            <Array as="points">
              <mxPoint x="895" y="450" />
              <mxPoint x="895" y="450" />
            </Array>
          </mxGeometry>
        </mxCell>
        <mxCell id="Ls341-RRSWLqtu8FOZN3-214" value="" style="edgeStyle=orthogonalEdgeStyle;rounded=0;orthogonalLoop=1;jettySize=auto;html=1;endArrow=classic;endFill=1;startArrow=classic;startFill=1;fillColor=#0050ef;strokeColor=#001DBC;strokeWidth=1;endSize=1;startSize=1;exitX=0.5;exitY=0;exitDx=0;exitDy=0;exitPerimeter=0;entryX=0.5;entryY=1;entryDx=0;entryDy=0;entryPerimeter=0;" parent="1" source="Ls341-RRSWLqtu8FOZN3-208" target="Ls341-RRSWLqtu8FOZN3-206" edge="1">
          <mxGeometry relative="1" as="geometry">
            <mxPoint x="1085" y="620" as="sourcePoint" />
            <mxPoint x="1085" y="600" as="targetPoint" />
            <Array as="points">
              <mxPoint x="1035" y="600" />
              <mxPoint x="1075" y="600" />
            </Array>
          </mxGeometry>
        </mxCell>
        <mxCell id="Ls341-RRSWLqtu8FOZN3-215" value="" style="sketch=0;outlineConnect=0;fontColor=#232F3E;gradientColor=none;fillColor=#4D27AA;strokeColor=none;dashed=0;verticalLabelPosition=bottom;verticalAlign=top;align=center;html=1;fontSize=12;fontStyle=0;aspect=fixed;pointerEvents=1;shape=mxgraph.aws4.internet_gateway;" parent="1" vertex="1">
          <mxGeometry x="1275" y="490" width="20" height="20" as="geometry" />
        </mxCell>
        <mxCell id="Ls341-RRSWLqtu8FOZN3-216" value="" style="sketch=0;outlineConnect=0;fontColor=#232F3E;gradientColor=none;fillColor=#4D27AA;strokeColor=none;dashed=0;verticalLabelPosition=bottom;verticalAlign=top;align=center;html=1;fontSize=12;fontStyle=0;aspect=fixed;pointerEvents=1;shape=mxgraph.aws4.internet_gateway;" parent="1" vertex="1">
          <mxGeometry x="1275" y="170" width="20" height="20" as="geometry" />
        </mxCell>
      </root>
    </mxGraphModel>
  </diagram>
</mxfile>
